<?xml version="1.0" encoding="utf-8"?>
<!-- Generator: Adobe Illustrator 26.3.1, SVG Export Plug-In . SVG Version: 6.00 Build 0)  -->
<svg version="1.1" id="Слой_1" xmlns="http://www.w3.org/2000/svg" xmlns:xlink="http://www.w3.org/1999/xlink" x="0px" y="0px"
	 viewBox="0 0 1024 1024" style="enable-background:new 0 0 1024 1024;" xml:space="preserve">
<style type="text/css">
	.st0{fill:#0B121F;}
	.st1{fill:#23496C;}
	.st2{fill:#FFFFFF;}
	.st3{fill:none;stroke:#FFFFFF;stroke-width:5;stroke-miterlimit:10;}
	.st4{fill:#F4F1EC;}
	.st5{fill:none;}
</style>
<rect x="-44.1" y="-74.7" class="st0" width="1112.2" height="1173.4"/>
<path class="st1" d="M629.1,677.3v67.4c-9.5-3.5-17.5-6.7-23.4-9.1c-18.1-7.3-22.5-9.8-27-13.5c-7.2-5.9-11.3-12-12.5-13.9
	c-2.1-3.2-3.5-6.2-4.5-8.4c11.6,0,23.1,0,34.7,0l26.6-21.8L629.1,677.3z"/>
<image style="overflow:visible;" width="1290" height="1215" xlink:href="F447ED9D.jpg"  transform="matrix(0.7944 0 0 0.7944 1130.1581 1328.4592)">
</image>
<path class="st1" d="M255.9,520.9l-79,184.2c-2.9,6.8,2.1,14.3,9.5,14.3h144.5c7.6,5.7,11.6,11.5,13.7,15.3
	c7.2,13.2,10.1,35.1,7.1,48.7c-0.5,2.4-2.5,10.1,0.8,12.5c0.7,0.5,1.3,0.6,1.6,0.6c5.1,0.9,11.1-8.8,12.2-10.5
	c4.2-6.4,14.3-15.6,40.7-27.6v-64.3H223.1c-5.2,0-8.7-5.3-6.6-10.1l64.3-147.6c9.4,1.8,32.3,4.7,50.2-8.8c2-1.5,4-3.2,5.9-5.3
	c-2.6-0.5-8-1.9-13.1-6.4c-6.8-5.9-8.5-13.4-8.9-15.8c-3.2,3.8-11.8,12.7-24.5,15.2c-4,0.8-14.7,2.9-21.5-0.5
	c-0.7-0.3-2.5-1.3-4.8-1.1c-1.6,0.1-3,0.8-4.3,1.7C258.1,517.1,256.8,518.9,255.9,520.9z"/>
<polygon class="st2" points="338.5,549.6 274,694.3 279.6,694.3 338.5,562.4 "/>
<polygon class="st2" points="359.8,694.3 389.6,660.7 406.8,660.7 406.8,665.3 392.3,665.3 366.8,694.3 "/>
<path class="st3" d="M252.4,595.4h20.9c3.9,0,6.5,4,5,7.6l-17.7,41.9c-1.4,3.3-4.6,5.4-8.1,5.4h-22.2"/>
<path class="st2" d="M640.8,655c0-0.1,0-0.2,0-0.3c0-0.1,0-0.2,0-0.2c0-0.1,0-0.2-0.1-0.2c0-0.1-0.1-0.1-0.1-0.2
	c0-0.1-0.1-0.1-0.1-0.2c0-0.1-0.1-0.1-0.1-0.2c-0.1-0.1-0.1-0.1-0.2-0.2c-0.1-0.1-0.1-0.1-0.2-0.2c0,0-0.1-0.1-0.2-0.1
	c-0.1-0.1-0.2-0.1-0.2-0.2c0,0-0.1,0-0.1-0.1c0,0-0.1,0-0.1,0c-0.1,0-0.2-0.1-0.3-0.1c-0.1,0-0.2-0.1-0.2-0.1c-0.1,0-0.2,0-0.2,0
	c-0.1,0-0.2,0-0.3,0c0,0,0,0-0.1,0H418.1c-0.1,0-0.2,0-0.3,0c-0.1,0-0.1,0-0.2,0c-0.1,0-0.2,0-0.2,0.1c-0.1,0-0.2,0.1-0.2,0.1
	c0,0,0,0-0.1,0c0,0-0.1,0.1-0.1,0.1c-0.1,0-0.2,0.1-0.2,0.2c-0.1,0-0.1,0.1-0.2,0.1c-0.1,0.1-0.1,0.1-0.2,0.2l-0.1,0.2
	c-0.1,0.1-0.1,0.1-0.1,0.2S416,654,416,654c0,0.1-0.1,0.1-0.1,0.2c0,0.1,0,0.1-0.1,0.2c0,0.1,0,0.2-0.1,0.2c0,0.1,0,0.2,0,0.3
	c0,0,0,0.1,0,0.2v101.5c1.6-0.3,3.3-0.7,5-1v-89.9l39.2,78.1c0.4,0.9,1.3,1.4,2.2,1.4c0.4,0,0.8-0.1,1.1-0.3
	c1.2-0.6,1.7-2.1,1.1-3.4l-8.1-16.2H599l-8.4,16.2c-0.6,1.2-0.2,2.7,1.1,3.4c0.4,0.2,0.8,0.3,1.2,0.3c0.9,0,1.8-0.5,2.2-1.4
	l40.7-78.5V748l5,2.3v-95.2C640.8,655.1,640.8,655,640.8,655z M600.5,722.4H454.7l-10.9-21.8h168.1L600.5,722.4z M613.4,697.6H442.3
	l-9.7-19.2h190.8L613.4,697.6z M625,675.3H431.1l-8.9-17.7h211.9L625,675.3z"/>
<g>
	<path class="st2" d="M758.7,313.1l-62.1,144.1h-5.4l61.5-142.6H599.2l-8.4-4.9c0.2-0.1,0.5-0.1,0.8-0.1h164.8
		c0.8,0,1.6,0.4,2.1,1.1C759,311.5,759,312.4,758.7,313.1z"/>
</g>
<g>
	<g>
		<path class="st4" d="M759.4,430.3h-8.5c-2.7,0-5.1-1.3-6.6-3.6s-1.7-5-0.6-7.5l14.9-33.6c1.6-3.6,5.2-5.9,9.1-5.9h11.4v4h-11.4
			c-2.4,0-4.5,1.4-5.5,3.6l-14.9,33.6c-0.5,1.2-0.4,2.6,0.3,3.7c0.7,1.1,1.9,1.8,3.2,1.8h8.5V430.3z"/>
	</g>
</g>
<path class="st1" d="M723.4,507L813.9,300c1.2-2.8-0.8-5.9-3.8-5.9H677.6v-20.8h161.5c4.3,0,7.3,4.4,5.5,8.4l-96.5,223.5
	c-0.7,1.7-1.1,3.5-1.2,5.4l0,0c0,1.2,0,2.1,0.1,2.8c0.2,1.8,0.3,2.8,0.5,3.8c0,0,0.5,2.4,1.9,4.9c2.6,4.8,33.6,19.6,40.2,24.3
	c10,7.2,16.6,28.4-2.3,92.8c-0.8,2.3-2.9,7.2-7.7,11.4c-3.7,3.2-7.5,4.6-9.8,5.3c-5.3,29.8-14.2,51.8-20.9,65.7
	c-10.5,21.6-20,32.4-32.6,38.4c-0.3,0.2-2.6,1.2-5.3,2.2c-22.2,7.9-47.8-1.6-61.9-8.3V648.7l9.7-15.7h56.7c4.3,0,7.8-3.5,7.8-7.8
	V507z"/>
<path class="st1" d="M329.1,460.3l10.5-2.6c-0.1-5-0.1-25.8,15.6-43.7c19.6-22.3,47.4-21.5,51.1-21.3c2.9-11.2,8.2-27,18.6-43.8
	c11.7-18.9,25.3-31.5,34.9-39.2c0-15.1,0-30.1,0-45.2c0,0-69.3-33.6-69.3-33.6c-16-7.8-35.2-8-51.3-0.5
	c-16.3,7.7-29.4,22.6-37.9,38.2c-2,3.7-3.7,7.5-5.4,11.4c-6.9,16.1-13.7,32.1-20.6,48.2c-3,7-0.4,15,6,19l4.2,2.6
	c-13.9,19.5-17.9,31.6-18.9,39.1c-0.9,7,0.2,15.8-3,23.4c-0.3,0.8-1.7,4-1.1,7.8c0.2,1.1,0.7,4.2,3.2,6c1.7,1.2,3.4,1.3,4.2,1.3
	c4.1,0.2,7.4-2.2,8.1-2.7c5.9-4.1,25.3-5.9,37.7,3.2C329.8,438.4,329.2,458.2,329.1,460.3z"/>
<path class="st1" d="M665.1,294.5H487.8v-13.6c0-4.1,3.4-7.5,7.5-7.5h171L665.1,294.5z"/>
<path class="st2" d="M429.7,444.2v-24.5c-1.8-0.8-4.5-1.8-7.8-2.5c-15.4-3.6-39.5-1.7-52.3,15.2c-2.5,3.3-7.8,11.4-8.3,24.9
	l-0.3,20.9h-22.4v25.3H361v116.2h30.4V502.7h32.9V479h-32.4c-0.1-3.8-0.1-7.2,0-10c0.4-13.3,2.3-16.5,3.3-17.9
	c2.1-3,4.6-4.5,5.8-5.3c4.4-2.7,8.6-2.9,13.4-3.2C420.9,442.1,426.2,443.2,429.7,444.2z"/>
<path class="st2" d="M504.5,461.6c-3.9,2.8-7.8,5.6-11.7,8.4c-22.6,28.9-45.3,57.9-67.9,86.8c0,8.9,0,17.9,0,26.8h98.3v36H551v-36
	h16.6v-25.3H551v-61.3h-27.8v61.5H456l48-61.3L504.5,461.6z"/>
<path class="st2" d="M581.6,480.7V577c0.2,4.2,1.6,23.5,17.1,36.5c17.7,14.8,41.9,11.7,56.7,4.8c9-4.2,15.1-10.1,18.7-14.2
	c0,5.2,0,10.4,0,15.6h30.1V480.7H674v85.5c0,17.2-13.9,31.1-31.1,31.1h0c-17.2,0-31.1-13.9-31.1-31.1v-85.5H581.6z"/>
<g>
	<path class="st2" d="M668.6,403.5H651c-0.1-1.1-0.1-6,0-7c5.1,0,8.9,0,14,0V179c0-1.9,1.6-3.5,3.5-3.5s3.5,1.6,3.5,3.5V400
		C672.1,401.9,670.5,403.5,668.6,403.5z"/>
</g>
<path class="st2" d="M476.5,326.5c-1.1,0.8-2.4,1.7-3.6,2.8c-1.2,1-2.3,2-3.2,3V179.6c0-1.9,1.5-3.4,3.4-3.4h0
	c1.9,0,3.4,1.5,3.4,3.4V326.5z"/>
<polyline class="st5" points="696.9,457.2 696.6,457.2 691.1,457.2 "/>
<path class="st2" d="M474.5,483.8c-2.6-2.9-5.6-6.5-8.3-11.1c-1.8-3-3.2-5.8-4.3-8.4c5.4,5.2,10.7,10.3,16.1,15.5L474.5,483.8z"/>
<path class="st2" d="M461.1,463.6c-1.9-2-3.8-4.2-5.7-6.5c-3.7-4.5-6.8-8.9-9.4-13.1c-0.8,1.2-1.6,2.8-2.2,4.7
	c-1.2,3.6-1.4,6.8-1.3,9c-0.4-0.8-0.9-2-1.5-3.5c-2.8-7.1-4.4-15.3-3.8-30.4c0.3-8.5,1.4-20,4.5-33.4c0.1,3.5,0.4,7.2,0.9,11.2
	c0.3,2.5,0.7,4.9,1.1,7.2c3.3-1.6,7.2-3.2,11.7-4.6c4.6-1.4,8.9-2.4,12.6-3c-3.9,4.1-8.3,9.3-12.4,15.8c-3,4.7-5.4,9.1-7.2,13.1
	c1.5,5.6,3.4,11.7,6,18.3C456.4,454,458.8,459.1,461.1,463.6z"/>
<path class="st2" d="M441.6,390.4c0.7-4.6,1.8-9.5,3.4-14.7c6-18.9,16.8-32.1,24.7-40.1c-7.3,4.4-22.9,15.3-31.5,35.5
	c-3.1,7.3-4.6,14.1-5.2,19.7c0.7-2.9,1.9-6.6,4.2-10.5c1.2-2,2.4-3.7,3.6-5.1c-0.1,2.1-0.1,4.4,0,6.9
	C440.9,385.1,441.2,387.8,441.6,390.4z"/>
<path class="st2" d="M474.8,331.1c3.5-1.7,8.4-3.6,14.4-4.8c4.9-0.9,9.2-1.1,12.7-1c3.4,6.4,6.8,12.8,10.1,19.1l14.4-22.1
	c5.7-0.5,12.7-0.7,20.7,0.3c5.8,0.7,11,1.9,15.3,3.1c-2.5-1.6-5.3-3.3-8.3-4.9c-4.1-2.2-7.9-4.1-11.6-5.6c6.6-0.8,14.8-1.2,24.2-0.1
	c17.2,2,30.5,8.1,38.6,12.8c-0.3-0.3-0.8-0.7-1.4-1.2c-1.5-1.2-3.4-2.6-5.7-4c-5.5-3.4-11.6-5-17.7-6.9c-12.9-4.1-26.5-6.5-40-6.5
	c-6.5,0-13,0.4-19.4,1.1c-6.4,0.7-12.8,2.1-19,4.1c-5.7,1.9-10.9,4.2-15.9,7.5C482.2,324.7,478.3,327.7,474.8,331.1z"/>
<polygon class="st2" points="504.9,459.8 503.6,413.8 468.6,401.1 504.9,385.8 511.4,345.9 529.2,377.9 574.4,370.6 544.7,402.8 
	571.8,437.5 528.5,424.7 "/>
<path class="st2" d="M585.3,472h35.3l-1.6,3.7h5.1l4.7-17.9c4-4.4,8.3-9.8,12.4-16.6c2.5-4.1,4.5-8,6.1-11.7
	c-2.5,2-6.2,4.5-11.2,6.1c-2.1,0.7-4,1.1-5.8,1.4c0.3-4.9,0.4-10.3,0.3-16c-0.2-5.8-0.6-11.2-1.2-16.2c-1.5,4.9-3.5,10.3-6,15.9
	c-3.3,7.5-6.8,14-10.2,19.5c-6.8,0.3-14.3,0.3-22.4-0.3c-5.8-0.4-11.3-1-16.3-1.7c2.7,3.8,5.5,7.7,8.5,11.7c3.7,4.8,7.4,9.4,11,13.7
	C591,466.4,588.1,469.2,585.3,472z"/>
<path class="st2" d="M628.7,402.3c0-4.9,0-9.9-0.2-15.1c-0.2-6-0.5-11.7-0.9-17.2c1.4-0.4,4.1-0.9,7.2-0.3c2.3,0.4,4.1,1.3,5.3,2
	c-1.5-2.9-3.4-6.2-6-9.5c-4.4-5.8-9.1-10-12.9-12.8c-1.7-3.7-4.3-8.2-7.9-12.9c-2.7-3.5-5.5-6.3-8-8.5c0.1,2.5-0.1,5.7-1,9.4
	c-0.5,1.8-1,3.4-1.6,4.9c-6.7-3.1-13.8-6.2-21.2-9.2c-5.7-2.3-11.3-4.4-16.7-6.4c5.3,3.6,10.9,7.9,16.7,12.9
	c4.4,3.8,8.4,7.6,11.9,11.2c-2.3,2.8-4.7,5.6-7.3,8.4c-3.6,4-7.2,7.7-10.7,11.1c11.7-0.7,23.3-1.3,35-2c3,6.7,6.5,13.9,10.6,21.3
	C623.6,394,626.2,398.3,628.7,402.3z"/>
<path class="st0" d="M639.3,750.1L639.3,750.1z"/>
</svg>
